/* XPM */
static char * minimizeA_xpm[] = {
"16 36 2 1",
"  c #404040",
". c #c0c0c0",
"                ",
"                ",
"                ",
"                ",
"                ",
"                ",
"                ",
"                ",
"                ",
"                ",
"                ",
"                ",
"   ........     ",
"   ........     ",
"                ",
"                ",
"                ",
"                ",
"                ",
"                ",
"                ",
"                ",
"                ",
"                ",
"                ",
"                ",
"                ",
"                ",
"                ",
"                ",
"   ........     ",
"   ........     ",
"                ",
"                ",
"                ",
"                "};
