/* XPM */
static char * minimizeA_xpm[] = {
"16 36 2 1",
"  c #202020",
". c #808080",
"                ",
"                ",
"                ",
"                ",
"                ",
"                ",
"                ",
"                ",
"                ",
"                ",
"                ",
"                ",
"   ........     ",
"   ........     ",
"                ",
"                ",
"                ",
"                ",
"                ",
"                ",
"                ",
"                ",
"                ",
"                ",
"                ",
"                ",
"                ",
"                ",
"                ",
"                ",
"   ........     ",
"   ........     ",
"                ",
"                ",
"                ",
"                "};
