/* XPM */
static char * debian_logo_22_xpm[] = {
"22 22 103 2",
"  	c None",
". 	c #404040",
"+ 	c #403F3F",
"@ 	c #6A3045",
"# 	c #A21B4B",
"$ 	c #A5194C",
"% 	c #902249",
"& 	c #892448",
"* 	c #762B45",
"= 	c #453D40",
"- 	c #603443",
"; 	c #B9114C",
"> 	c #D70751",
", 	c #CB0A4F",
"' 	c #B9124D",
") 	c #722C45",
"! 	c #912249",
"~ 	c #D60750",
"{ 	c #CE0A4F",
"] 	c #6C2F45",
"^ 	c #5E3343",
"/ 	c #623343",
"( 	c #7A2A46",
"_ 	c #AE164C",
": 	c #A8184B",
"< 	c #443E40",
"[ 	c #882448",
"} 	c #912149",
"| 	c #543842",
"1 	c #782B46",
"2 	c #D50750",
"3 	c #553842",
"4 	c #D40750",
"5 	c #C70C4F",
"6 	c #6E2E45",
"7 	c #413F40",
"8 	c #7A2A47",
"9 	c #6D2E44",
"0 	c #B0154C",
"a 	c #CA0B4F",
"b 	c #553741",
"c 	c #B4134D",
"d 	c #BD104E",
"e 	c #6B2F45",
"f 	c #6A2F44",
"g 	c #952048",
"h 	c #7F2746",
"i 	c #4B3C41",
"j 	c #633344",
"k 	c #9F1A4A",
"l 	c #C10F4F",
"m 	c #413E40",
"n 	c #653144",
"o 	c #7E2847",
"p 	c #423E40",
"q 	c #583642",
"r 	c #613343",
"s 	c #8B2349",
"t 	c #971F4A",
"u 	c #513942",
"v 	c #BC114E",
"w 	c #782A46",
"x 	c #872448",
"y 	c #463D40",
"z 	c #593643",
"A 	c #D20850",
"B 	c #5A3542",
"C 	c #683044",
"D 	c #4E3A41",
"E 	c #9B1D4A",
"F 	c #693044",
"G 	c #B3144C",
"H 	c #443D41",
"I 	c #B7134D",
"J 	c #6D2F45",
"K 	c #473C40",
"L 	c #523942",
"M 	c #BB114D",
"N 	c #8A2348",
"O 	c #4C3C41",
"P 	c #683145",
"Q 	c #9E1B4A",
"R 	c #A6194B",
"S 	c #922048",
"T 	c #812647",
"U 	c #981E4A",
"V 	c #B5124D",
"W 	c #CF0950",
"X 	c #732C46",
"Y 	c #C50D4E",
"Z 	c #C10E4E",
"` 	c #7D2846",
" .	c #633243",
"..	c #A5194B",
"+.	c #513941",
"@.	c #C60D4F",
"#.	c #812747",
"$.	c #BF0F4E",
"%.	c #4E3B41",
"&.	c #8F2249",
"*.	c #4C3B41",
"=.	c #673144",
"-.	c #951F49",
". . . . . . . + @ # $ % & * = . . . . . . . ",
". . . . . . - ; > > > > > > , ' ) + . . . . ",
". . . . . ! ~ > { ! ] ^ / ( _ > > : < . . . ",
". . . . [ > > } | . . . . . . 1 2 > # . . . ",
". . = 3 4 5 6 7 . . . . . . . . 8 > > 9 . . ",
". . = 0 a b . . . . . . . . . . + c d ) . . ",
". . e > ] . . . . . f g h 6 i . . ( > j . . ",
". . k l m . . . . n o . . . p . . q > r . . ",
". . l s . . . . 7 t . . . . . 7 . u > 8 . . ",
". . v w . . . . u x . . . . . y . z A B . . ",
". . v C . . . . D E . . . . = + . F G H . . ",
". . I J . . . . . _ = . K L p . 7 M C 7 . . ",
". . 0 N . . . . O P Q p . . . O R x . . . . ",
". . S k . . . . . K T G x 1 U V F . . . . . ",
". . e W ] . . . . . m n X 1 b . . . . . . . ",
". . m Y Z + . . . . . . . . . . . . . . . . ",
". . . ` >  .. . . . . . . . . . . . . . . . ",
". . . 7 V ... . . . . . . . . . . . . . . . ",
". . . . +.@.#.. . . . . . . . . . . . . . . ",
". . . . . q $.#.+ . . . . . . . . . . . . . ",
". . . . . . %.: &.*.. . . . . . . . . . . . ",
". . . . . . . . =.-.6 %.. . . . . . . . . . "};
